HIERARCHY
ROOT root
{
	OFFSET 0.000000 0.000000 0.000000
	CHANNELS 6 Xposition Yposition Zposition Zrotation Yrotation Xrotation
	JOINT lhip
	{
		OFFSET 0.058581 -0.082280 -0.017664
		CHANNELS 3 Zrotation Yrotation Xrotation
		JOINT lknee
		{
			OFFSET 0.043451 -0.386469 0.008037
			CHANNELS 3 Zrotation Yrotation Xrotation
			JOINT lankle
			{
				OFFSET -0.014790 -0.426874 -0.037428
				CHANNELS 3 Zrotation Yrotation Xrotation
				JOINT ltoe
				{
					OFFSET 0.041054 -0.060286 0.122042
					CHANNELS 3 Zrotation Yrotation Xrotation
					End Site
					{
						OFFSET 0.000000 0.000000 0.000000
					}
				}
			}
		}
	}
	JOINT rhip
	{
		OFFSET -0.060310 -0.090513 -0.013543
		CHANNELS 3 Zrotation Yrotation Xrotation
		JOINT rknee
		{
			OFFSET -0.043257 -0.383688 -0.004843
			CHANNELS 3 Zrotation Yrotation Xrotation
			JOINT rankle
			{
				OFFSET 0.019056 -0.420046 -0.034562
				CHANNELS 3 Zrotation Yrotation Xrotation
				JOINT rtoe
				{
					OFFSET -0.034840 -0.062106 0.130323
					CHANNELS 3 Zrotation Yrotation Xrotation
					End Site
					{
						OFFSET 0.000000 0.000000 0.000000
					}
				}
			}
		}
	}
	JOINT lowerback
	{
		OFFSET 0.004439 0.124404 -0.038385
		CHANNELS 3 Zrotation Yrotation Xrotation
		JOINT upperback
		{
			OFFSET 0.004488 0.137956 0.026820
			CHANNELS 3 Zrotation Yrotation Xrotation
			JOINT chest
			{
				OFFSET -0.002265 0.056032 0.002855
				CHANNELS 3 Zrotation Yrotation Xrotation
				JOINT lowerneck
				{
					OFFSET -0.013390 0.211636 -0.033468
					CHANNELS 3 Zrotation Yrotation Xrotation
					JOINT upperneck
					{
						OFFSET 0.010113 0.088937 0.050410
						CHANNELS 3 Zrotation Yrotation Xrotation
						End Site
						{
							OFFSET 0.000000 0.000000 0.000000
						}
					}
				}
				JOINT lclavicle
				{
					OFFSET 0.071702 0.114000 -0.018898
					CHANNELS 3 Zrotation Yrotation Xrotation
					JOINT lshoulder
					{
						OFFSET 0.122921 0.045205 -0.019046
						CHANNELS 3 Zrotation Yrotation Xrotation
						JOINT lelbow
						{
							OFFSET 0.255332 -0.015649 -0.022946
							CHANNELS 3 Zrotation Yrotation Xrotation
							JOINT lwrist
							{
								OFFSET 0.265709 0.012698 -0.007375
								CHANNELS 3 Zrotation Yrotation Xrotation
								End Site
								{
									OFFSET 0.000000 0.000000 0.000000
								}
							}
						}
					}
				}
				JOINT rclavicle
				{
					OFFSET -0.082954 0.112472 -0.023707
					CHANNELS 3 Zrotation Yrotation Xrotation
					JOINT rshoulder
					{
						OFFSET -0.113228 0.046853 -0.008472
						CHANNELS 3 Zrotation Yrotation Xrotation
						JOINT relbow
						{
							OFFSET -0.260127 -0.014369 -0.031269
							CHANNELS 3 Zrotation Yrotation Xrotation
							JOINT rwrist
							{
								OFFSET -0.269108 0.006794 -0.006027
								CHANNELS 3 Zrotation Yrotation Xrotation
								End Site
								{
									OFFSET 0.000000 0.000000 0.000000
								}
							}
						}
					}
				}
			}
		}
	}
}
MOTION
Frames: 13
Frame Time: 0.033333
0.050962 -0.387209 0.916397 -169.333723 1.476960 100.069588 18.013100 5.065632 6.716509 -6.246755 -17.619620 24.118157 -7.553857 8.763935 -14.643178 0.000000 -0.000000 0.000000 -11.198743 -9.708530 -47.943693 -3.000424 -17.276589 74.911317 6.231526 -9.103275 -14.086500 0.000000 -0.000000 0.000000 -3.616584 -8.549794 21.201053 1.582182 0.173634 -2.836323 1.480515 -3.866610 -1.816810 -1.885045 -1.126534 -9.863497 0.022745 -3.888461 2.742166 -24.153769 -0.353742 5.173641 -31.842246 -9.430659 9.289297 48.255485 -82.213333 -38.725648 20.337017 -16.240097 -26.739936 24.333313 3.825119 3.573331 36.912613 -9.508326 8.081127 3.239681 35.706293 -10.392890 -7.038858 19.237979 -25.313547 
0.061582 -0.303646 0.934373 -169.046286 2.653933 100.842102 21.908360 6.002304 12.804765 -2.865818 -15.410819 15.844763 -14.482814 5.932682 0.640823 0.000000 -0.000000 0.000000 -12.421873 -9.156151 -47.977442 -2.048243 -23.298363 55.137568 6.393670 -8.871819 -12.274996 0.000000 -0.000000 0.000000 -0.366447 -12.565906 16.462935 1.844834 -1.529097 1.598508 1.060252 -4.379088 -3.907906 -2.747774 1.058768 -7.590776 -0.458969 -0.973462 1.151484 -22.977176 0.215792 6.490261 -32.776183 -10.261952 10.093532 72.351373 -83.248593 -61.386317 18.498315 -17.511128 -26.572636 23.034064 2.752592 5.265828 34.234668 -9.249757 6.256907 5.136882 34.597636 -9.754915 -8.329236 19.763479 -27.092908 
0.070879 -0.216348 0.944849 -169.944701 2.388195 101.508086 22.540265 7.460850 17.787527 -0.277326 -15.940711 10.868180 -13.949288 5.677882 7.641087 0.000000 -0.000000 0.000000 -11.966771 -9.826286 -46.259208 1.192471 -24.295537 33.371065 8.177525 -9.670435 -6.555055 0.000000 -0.000000 0.000000 1.865417 -14.828132 13.947329 1.243279 -2.727933 0.170196 1.431811 -5.328655 -3.152723 -5.648870 -0.619591 -3.749001 -0.222292 5.159474 -2.394297 -23.007932 1.651270 9.132649 -33.343035 -10.578921 9.976263 80.869259 -85.081285 -67.960208 20.144361 -17.474907 -26.784608 21.874040 1.746561 7.625152 31.387060 -7.465347 4.491213 6.284624 33.690051 -10.192864 -8.361505 20.914338 -25.825433 
0.082890 -0.132480 0.945020 -171.432053 2.430026 101.489245 20.846359 6.387603 17.849700 0.822397 -13.507826 19.446283 -11.950251 7.512467 2.575631 0.000000 -0.000000 0.000000 -10.868335 -9.507916 -45.536132 3.254806 -22.961941 21.693241 11.819697 -8.561502 0.841061 0.000000 -0.000000 0.000000 3.032823 -15.282761 10.646557 2.056800 -3.759777 3.040946 1.816832 -6.036745 -3.052625 -7.014379 0.144901 -3.042793 -2.520716 7.782183 -3.302163 -23.165912 2.087613 10.266384 -35.774781 -11.052602 10.296023 48.904568 -84.768705 -36.860966 19.862012 -18.928527 -25.866168 21.674488 1.587166 7.750712 28.626247 -4.503020 5.264122 4.687697 33.809853 -12.194728 -8.779652 21.859016 -24.988947 
0.097204 -0.048471 0.936909 -174.593390 2.846396 99.342326 18.564256 5.070914 17.577084 0.048088 -10.289453 34.088461 -9.583084 10.277818 -0.852495 0.000000 -0.000000 0.000000 -9.118247 -7.863799 -44.531761 3.275420 -21.679106 24.738004 11.195959 -7.071013 2.608352 0.000000 -0.000000 0.000000 3.457688 -14.823166 11.065786 2.645249 -3.403621 4.469627 1.606527 -5.498398 -2.920324 -7.688276 1.190543 -2.156461 -4.579244 8.940900 -3.804127 -24.548619 2.009795 9.521970 -36.914167 -9.683859 11.586604 14.367923 -81.274633 -3.094784 18.783803 -18.149284 -25.029299 23.038770 2.093100 7.506805 26.352745 -3.074301 6.228402 2.660728 34.988359 -13.772123 -11.544342 20.565072 -26.318429 
0.110783 0.032665 0.923700 -177.900273 3.433100 94.751221 17.184802 6.230405 16.238931 -3.082864 -10.449437 53.000386 -8.630116 10.208405 -3.801215 0.000000 -0.000000 0.000000 -6.931899 -6.705885 -42.092307 2.715902 -18.501514 37.678678 2.923296 -7.183821 -6.389101 0.000000 -0.000000 0.000000 4.547368 -13.947071 16.351999 2.296690 -2.025915 2.817755 0.693090 -4.796020 -1.808046 -8.275224 2.074976 -3.917781 -5.626226 9.376787 -1.193417 -25.562086 0.676150 7.874946 -38.583444 -6.506258 11.726973 -1.637771 -74.682641 13.679759 17.732220 -17.235155 -24.109722 23.744456 3.969853 5.966865 25.956475 -4.071048 5.765792 2.028745 37.343400 -12.474572 -13.642030 19.496896 -29.383954 
0.121695 0.107352 0.914678 177.834296 3.689999 89.900383 15.442915 9.181292 12.653560 -4.832961 -8.520578 70.426367 -8.652895 8.936058 -8.399600 0.000000 -0.000000 0.000000 -4.837170 -5.126278 -37.923379 1.474207 -14.384078 47.416286 1.709637 -7.244994 -14.343233 0.000000 -0.000000 0.000000 5.469452 -12.773658 24.259754 0.824396 0.443444 -0.022683 -0.063088 -3.474619 -1.000894 -8.259068 2.491100 -7.176131 -6.752741 9.712474 2.305727 -26.633325 -0.369337 5.898788 -40.695350 -3.535125 10.923510 -6.500316 -65.949432 18.460648 14.202578 -15.339324 -21.147560 24.229771 5.659471 3.173725 26.169750 -4.361185 5.034822 2.431409 38.755550 -11.136535 -11.210229 19.385502 -27.107299 
0.131069 0.175950 0.912033 176.414957 3.345013 88.837769 12.618849 9.499647 1.665013 -4.956014 -4.141112 84.185961 -7.105758 8.439618 -10.902007 0.000000 -0.000000 0.000000 -4.149025 -4.944034 -34.124173 1.766388 -11.802137 51.311468 -0.242846 -8.575080 -19.947130 0.000000 -0.000000 0.000000 6.194618 -10.731294 26.097695 0.520885 0.889873 0.457678 -0.471379 -2.620933 -1.373301 -8.666978 1.649655 -6.986355 -7.099650 10.838949 0.962817 -29.443702 -0.906795 5.524242 -41.831401 -0.867030 8.793585 -6.957246 -56.901394 18.449031 12.225333 -13.563928 -14.905661 24.826253 6.651780 4.182619 26.266434 -2.753442 2.401563 2.402619 40.486136 -8.984641 -8.334637 18.773195 -24.728871 
0.139151 0.240664 0.918103 176.018837 2.867972 88.617526 9.865193 8.171246 -11.090760 -3.332352 0.359788 90.838519 -4.722161 8.932930 -14.726823 0.000000 -0.000000 0.000000 -3.676640 -5.520207 -28.972982 1.744352 -9.728974 51.441626 -0.568392 -9.408942 -23.531182 0.000000 -0.000000 0.000000 6.427655 -7.657852 27.587081 0.108256 1.018314 -0.787368 -0.387352 -2.040395 -1.273113 -8.473989 -0.267241 -5.924588 -6.517479 12.159448 -0.135343 -31.687732 -0.046105 5.688221 -41.872289 3.058162 7.870031 -7.912449 -52.663990 18.342967 9.563359 -12.179399 -11.859199 24.632094 7.290752 4.655664 26.864722 -2.707613 3.291908 2.546862 43.093782 -8.802135 -8.008264 19.140752 -24.701410 
0.145541 0.306304 0.933034 174.512866 2.323243 88.254462 8.214799 7.789553 -21.610622 -0.706577 4.452386 88.299639 -2.607467 10.431310 -17.463288 0.000000 -0.000000 0.000000 -3.273737 -5.933289 -22.158699 1.551244 -7.218339 48.300902 0.102009 -9.788535 -24.607816 0.000000 -0.000000 0.000000 5.921383 -3.956340 28.291640 -0.476006 1.564325 -0.838555 -0.202329 -1.232928 -1.062964 -8.327509 -0.876790 -4.843485 -6.285184 13.252280 -1.398801 -32.883916 2.165001 5.530186 -40.353203 7.234249 7.519672 -11.473662 -51.168968 20.685674 7.754780 -13.225416 -10.223993 24.240519 6.809019 4.912387 27.267832 -2.748036 4.911975 4.150359 46.653912 -8.114227 -8.600578 20.276605 -25.284965 
0.150396 0.372567 0.953851 172.866828 1.478037 88.342008 7.619566 6.762126 -28.827065 0.738333 9.495730 77.121715 -1.903316 10.331059 -17.676692 0.000000 -0.000000 0.000000 -3.774200 -5.476105 -15.613841 0.988272 -5.158251 44.209336 2.272494 -9.040220 -22.640675 0.000000 -0.000000 0.000000 4.824799 0.151896 27.388299 -0.767159 2.251451 0.847922 -0.119523 -0.595032 -1.370891 -7.894063 -0.519071 -3.336900 -5.999482 12.766224 -2.827214 -32.890268 3.713271 5.915629 -38.744138 11.134092 8.057219 -13.627814 -50.820134 21.790342 5.881675 -14.551597 -8.870869 24.241202 5.904728 4.607157 28.085796 -3.877750 6.809907 3.806935 50.911753 -8.023633 -8.585052 21.356863 -26.282528 
0.154029 0.441811 0.977022 171.584990 0.965117 88.525989 7.917716 5.658300 -31.188515 0.044499 14.665290 58.092497 -2.748522 10.693351 -15.893633 0.000000 -0.000000 0.000000 -4.700476 -5.285736 -9.821296 0.573906 -3.294108 40.972604 5.306219 -7.114672 -17.019405 0.000000 -0.000000 0.000000 3.408894 3.606068 25.336134 -0.808698 2.950104 3.107634 0.326542 -0.019267 -1.923235 -8.277755 0.288664 -0.669869 -5.255229 12.905341 -5.231963 -32.534936 5.062581 6.712223 -37.236228 14.888550 8.800083 -14.951244 -50.865950 21.598009 6.191289 -15.697108 -8.792676 24.389520 4.809804 5.160187 28.934600 -4.842906 8.041407 3.629085 54.166786 -8.441505 -10.069319 21.948232 -27.789228 
0.156279 0.510582 0.996923 170.611434 1.431191 89.433785 7.911510 5.026566 -30.238249 -2.602641 16.913563 33.220696 -4.124063 12.099722 -9.126430 0.000000 -0.000000 0.000000 -5.147462 -5.495042 -7.033657 0.247618 -2.043612 40.531429 7.752852 -5.384598 -9.015902 0.000000 -0.000000 0.000000 2.543806 5.678132 21.597115 -0.706374 3.495661 5.312350 0.594822 0.780433 -1.765262 -8.247663 1.824180 1.442708 -4.835393 12.875800 -6.541599 -31.338846 6.462677 6.748831 -36.099802 17.775133 8.802964 -15.652339 -50.766318 20.937185 4.067490 -16.464469 -9.253748 24.470185 3.904756 5.663323 30.223447 -5.057512 8.217456 3.633910 55.062774 -9.031528 -9.543315 22.539055 -28.538737 
